HIERARCHY
ROOT Hips
{
	OFFSET 0.000000 71.427986 0.000000
	CHANNELS 6 Xposition Yposition Zposition Xrotation Yrotation Zrotation
	JOINT Pelvis
	{
		OFFSET 0.000000 0.000000 0.000000
		CHANNELS 3 Xrotation Yrotation Zrotation
		JOINT LeftUpLeg
		{
			OFFSET 6.797100 -2.508499 -1.318700
			CHANNELS 3 Xrotation Yrotation Zrotation
			JOINT LeftLeg
			{
				OFFSET 0.069008 -29.241863 0.690200
				CHANNELS 3 Xrotation Yrotation Zrotation
				JOINT LeftFoot
				{
					OFFSET -0.069008 -29.568123 -0.266800
					CHANNELS 3 Xrotation Yrotation Zrotation
					JOINT LeftToeBase
					{
						OFFSET 3.145500 -8.631000 16.059900
						CHANNELS 3 Xrotation Yrotation Zrotation
						End Site
						{
							OFFSET 0.000000 18.501587 0.000000
						}
					}
				}
			}
			JOINT Left_ShortSleeve
			{
				OFFSET 0.265923 -10.480953 1.153800
				CHANNELS 3 Xrotation Yrotation Zrotation
				End Site
				{
					OFFSET 1.725763 19.823879 0.000000
				}
			}
		}
		JOINT RightUpLeg
		{
			OFFSET -6.797100 -2.508499 -1.318700
			CHANNELS 3 Xrotation Yrotation Zrotation
			JOINT RightLeg
			{
				OFFSET -0.082453 -29.241932 0.688000
				CHANNELS 3 Xrotation Yrotation Zrotation
				JOINT RightFoot
				{
					OFFSET 0.082453 -29.568058 -0.264600
					CHANNELS 3 Xrotation Yrotation Zrotation
					JOINT RightToeBase
					{
						OFFSET -3.115300 -8.682800 16.113400
						CHANNELS 3 Xrotation Yrotation Zrotation
						End Site
						{
							OFFSET 0.000000 18.567114 0.000000
						}
					}
				}
			}
			JOINT Right_ShortSleeve
			{
				OFFSET -0.265923 -10.480953 1.153800
				CHANNELS 3 Xrotation Yrotation Zrotation
				End Site
				{
					OFFSET -1.725766 19.823910 0.000000
				}
			}
		}
	}
	JOINT Spine
	{
		OFFSET 0.000000 13.368103 0.470500
		CHANNELS 3 Xrotation Yrotation Zrotation
		JOINT Spine1
		{
			OFFSET 0.147000 13.837402 0.538800
			CHANNELS 3 Xrotation Yrotation Zrotation
			JOINT Spine2
			{
				OFFSET 0.168000 16.242897 -1.435500
				CHANNELS 3 Xrotation Yrotation Zrotation
				JOINT Neck
				{
					OFFSET 0.217200 18.631500 -1.679100
					CHANNELS 3 Xrotation Yrotation Zrotation
					JOINT Head
					{
						OFFSET 0.000000 6.599396 1.385900
						CHANNELS 3 Xrotation Yrotation Zrotation
						JOINT Hat
						{
							OFFSET -0.532200 27.220596 -10.096100
							CHANNELS 3 Xrotation Yrotation Zrotation
							End Site
							{
								OFFSET 0.000000 22.029861 0.000000
							}
						}
						JOINT HairD
						{
							OFFSET -10.777400 17.437393 -1.325900
							CHANNELS 3 Xrotation Yrotation Zrotation
							JOINT HairD1
							{
								OFFSET -3.290299 -11.051193 1.062200
								CHANNELS 3 Xrotation Yrotation Zrotation
								End Site
								{
									OFFSET 0.000000 11.579437 0.000000
								}
							}
						}
						JOINT HairB
						{
							OFFSET -10.777400 17.437393 1.467900
							CHANNELS 3 Xrotation Yrotation Zrotation
							JOINT HairB1
							{
								OFFSET -1.561200 -12.956299 3.590200
								CHANNELS 3 Xrotation Yrotation Zrotation
								End Site
								{
									OFFSET 0.000000 13.534866 0.000000
								}
							}
						}
						JOINT HairA
						{
							OFFSET 9.713100 17.437393 1.467900
							CHANNELS 3 Xrotation Yrotation Zrotation
							JOINT HairA1
							{
								OFFSET 1.561200 -12.956299 3.590200
								CHANNELS 3 Xrotation Yrotation Zrotation
								End Site
								{
									OFFSET 0.000000 13.534866 0.000000
								}
							}
						}
						JOINT HairC
						{
							OFFSET 9.713100 17.437393 -1.325900
							CHANNELS 3 Xrotation Yrotation Zrotation
							JOINT HairC1
							{
								OFFSET 3.290300 -11.051193 1.062200
								CHANNELS 3 Xrotation Yrotation Zrotation
								End Site
								{
									OFFSET 0.000000 11.579437 0.000000
								}
							}
						}
					}
				}
				JOINT LeftShoulder
				{
					OFFSET 5.101800 15.108002 -2.763700
					CHANNELS 3 Xrotation Yrotation Zrotation
					JOINT LeftArm
					{
						OFFSET 9.825497 2.506317 -1.597400
						CHANNELS 3 Xrotation Yrotation Zrotation
						JOINT LeftForeArm
						{
							OFFSET 21.966244 0.000000 0.000000
							CHANNELS 3 Xrotation Yrotation Zrotation
							JOINT LeftHand
							{
								OFFSET 33.879036 0.000000 0.000000
								CHANNELS 3 Xrotation Yrotation Zrotation
								JOINT LeftHandThumb1
								{
									OFFSET 6.715286 -2.359680 3.363841
									CHANNELS 3 Xrotation Yrotation Zrotation
									JOINT LeftHandThumb2
									{
										OFFSET 2.507072 -1.447464 1.447461
										CHANNELS 3 Xrotation Yrotation Zrotation
										JOINT LeftHandThumb3
										{
											OFFSET 2.898338 -1.673355 1.673357
											CHANNELS 3 Xrotation Yrotation Zrotation
											End Site
											{
												OFFSET -0.295959 3.727692 -0.131651
											}
										}
									}
								}
								JOINT LeftHandIndex1
								{
									OFFSET 14.190811 -0.254547 3.840278
									CHANNELS 3 Xrotation Yrotation Zrotation
									JOINT LeftHandIndex2
									{
										OFFSET 3.551727 0.000000 -0.000000
										CHANNELS 3 Xrotation Yrotation Zrotation
										JOINT LeftHandIndex3
										{
											OFFSET 2.894196 0.000000 0.000000
											CHANNELS 3 Xrotation Yrotation Zrotation
											End Site
											{
												OFFSET -1.000603 2.690872 0.366626
											}
										}
									}
								}
								JOINT LeftHandMiddle1
								{
									OFFSET 13.776489 0.000000 0.000000
									CHANNELS 3 Xrotation Yrotation Zrotation
									JOINT LeftHandMiddle2
									{
										OFFSET 3.438232 0.000000 0.000000
										CHANNELS 3 Xrotation Yrotation Zrotation
										JOINT LeftHandMiddle3
										{
											OFFSET 3.691551 0.000000 0.000000
											CHANNELS 3 Xrotation Yrotation Zrotation
											End Site
											{
												OFFSET -1.082298 3.499527 0.457670
											}
										}
									}
								}
								JOINT LeftHandRing1
								{
									OFFSET 13.966164 -0.268127 -3.067488
									CHANNELS 3 Xrotation Yrotation Zrotation
									JOINT LeftHandRing2
									{
										OFFSET 3.162567 0.000000 0.000000
										CHANNELS 3 Xrotation Yrotation Zrotation
										JOINT LeftHandRing3
										{
											OFFSET 3.324348 0.000000 0.000000
											CHANNELS 3 Xrotation Yrotation Zrotation
											End Site
											{
												OFFSET -0.861900 3.184998 0.405154
											}
										}
									}
								}
								JOINT LeftHandPinky1
								{
									OFFSET 13.131393 -0.168503 -5.746925
									CHANNELS 3 Xrotation Yrotation Zrotation
									JOINT LeftHandPinky2
									{
										OFFSET 2.849182 0.000000 0.000000
										CHANNELS 3 Xrotation Yrotation Zrotation
										JOINT LeftHandPinky3
										{
											OFFSET 2.805038 0.000000 0.000000
											CHANNELS 3 Xrotation Yrotation Zrotation
											End Site
											{
												OFFSET -0.882500 2.642609 0.325652
											}
										}
									}
								}
							}
							JOINT Left_Sleeve
							{
								OFFSET 6.592125 -0.646545 0.805568
								CHANNELS 3 Xrotation Yrotation Zrotation
								End Site
								{
									OFFSET -0.000179 20.275787 -0.000000
								}
							}
						}
					}
				}
				JOINT RightShoulder
				{
					OFFSET -5.731700 15.108002 -2.763700
					CHANNELS 3 Xrotation Yrotation Zrotation
					JOINT RightArm
					{
						OFFSET -9.825497 2.506317 -1.597400
						CHANNELS 3 Xrotation Yrotation Zrotation
						JOINT RightForeArm
						{
							OFFSET -21.966242 0.000000 0.000000
							CHANNELS 3 Xrotation Yrotation Zrotation
							JOINT RightHand
							{
								OFFSET -33.879032 0.000000 0.000000
								CHANNELS 3 Xrotation Yrotation Zrotation
								JOINT RightHandThumb1
								{
									OFFSET -6.715286 -2.359680 3.363841
									CHANNELS 3 Xrotation Yrotation Zrotation
									JOINT RightHandThumb2
									{
										OFFSET -2.507072 -1.447464 1.447461
										CHANNELS 3 Xrotation Yrotation Zrotation
										JOINT RightHandThumb3
										{
											OFFSET -2.898338 -1.673355 1.673357
											CHANNELS 3 Xrotation Yrotation Zrotation
											End Site
											{
												OFFSET 0.295959 3.727692 -0.131651
											}
										}
									}
								}
								JOINT RightHandIndex1
								{
									OFFSET -14.190811 -0.254547 3.840278
									CHANNELS 3 Xrotation Yrotation Zrotation
									JOINT RightHandIndex2
									{
										OFFSET -3.551727 0.000000 -0.000000
										CHANNELS 3 Xrotation Yrotation Zrotation
										JOINT RightHandIndex3
										{
											OFFSET -2.894196 0.000000 0.000000
											CHANNELS 3 Xrotation Yrotation Zrotation
											End Site
											{
												OFFSET 1.000603 2.690872 0.366626
											}
										}
									}
								}
								JOINT RightHandMiddle1
								{
									OFFSET -13.776489 0.000000 0.000000
									CHANNELS 3 Xrotation Yrotation Zrotation
									JOINT RightHandMiddle2
									{
										OFFSET -3.438232 0.000000 0.000000
										CHANNELS 3 Xrotation Yrotation Zrotation
										JOINT RightHandMiddle3
										{
											OFFSET -3.691551 0.000000 0.000000
											CHANNELS 3 Xrotation Yrotation Zrotation
											End Site
											{
												OFFSET 1.082298 3.499527 0.457670
											}
										}
									}
								}
								JOINT RightHandRing1
								{
									OFFSET -13.966164 -0.268127 -3.067488
									CHANNELS 3 Xrotation Yrotation Zrotation
									JOINT RightHandRing2
									{
										OFFSET -3.162567 0.000000 0.000000
										CHANNELS 3 Xrotation Yrotation Zrotation
										JOINT RightHandRing3
										{
											OFFSET -3.324348 0.000000 0.000000
											CHANNELS 3 Xrotation Yrotation Zrotation
											End Site
											{
												OFFSET 0.861900 3.184998 0.405154
											}
										}
									}
								}
								JOINT RightHandPinky1
								{
									OFFSET -13.131393 -0.168503 -5.746925
									CHANNELS 3 Xrotation Yrotation Zrotation
									JOINT RightHandPinky2
									{
										OFFSET -2.849182 0.000000 0.000000
										CHANNELS 3 Xrotation Yrotation Zrotation
										JOINT RightHandPinky3
										{
											OFFSET -2.805038 0.000000 0.000000
											CHANNELS 3 Xrotation Yrotation Zrotation
											End Site
											{
												OFFSET 0.882500 2.642609 0.325652
											}
										}
									}
								}
							}
							JOINT Right_Sleeve
							{
								OFFSET -6.592125 -0.646545 0.805568
								CHANNELS 3 Xrotation Yrotation Zrotation
								End Site
								{
									OFFSET 0.000179 20.275787 -0.000000
								}
							}
						}
					}
				}
				JOINT Bind_Right_JacketString
				{
					OFFSET -3.534800 11.969597 7.200700
					CHANNELS 3 Xrotation Yrotation Zrotation
					JOINT Bind_Right_JacketString1
					{
						OFFSET -0.319900 -6.102600 2.794100
						CHANNELS 3 Xrotation Yrotation Zrotation
						End Site
						{
							OFFSET 0.000000 6.719452 0.000000
						}
					}
				}
				JOINT Bind_Left_JacketString
				{
					OFFSET 2.904800 11.969597 7.200700
					CHANNELS 3 Xrotation Yrotation Zrotation
					JOINT Bind_Left_JacketString1
					{
						OFFSET 0.364800 -5.904503 3.186800
						CHANNELS 3 Xrotation Yrotation Zrotation
						End Site
						{
							OFFSET 0.000000 6.719513 0.000000
						}
					}
				}
				JOINT HairE
				{
					OFFSET 5.915200 17.612701 -11.592200
					CHANNELS 3 Xrotation Yrotation Zrotation
					JOINT HairE1
					{
						OFFSET 0.289200 -7.171898 -1.284500
						CHANNELS 3 Xrotation Yrotation Zrotation
						End Site
						{
							OFFSET 0.000000 7.291756 0.000000
						}
					}
				}
				JOINT HairF
				{
					OFFSET -0.864800 17.612701 -11.592200
					CHANNELS 3 Xrotation Yrotation Zrotation
					JOINT HairF1
					{
						OFFSET 0.000000 -14.087097 -2.127501
						CHANNELS 3 Xrotation Yrotation Zrotation
						End Site
						{
							OFFSET 0.000000 14.246841 0.000000
						}
					}
				}
				JOINT HairG
				{
					OFFSET -8.087700 17.612701 -11.592200
					CHANNELS 3 Xrotation Yrotation Zrotation
					JOINT HairG1
					{
						OFFSET -0.293600 -6.081398 -0.910100
						CHANNELS 3 Xrotation Yrotation Zrotation
						End Site
						{
							OFFSET 0.000000 6.156120 0.000000
						}
					}
				}
			}
		}
	}
	JOINT Pouch
	{
		OFFSET 0.000000 4.394501 10.847300
		CHANNELS 3 Xrotation Yrotation Zrotation
		End Site
		{
			OFFSET 0.000000 21.880577 0.000000
		}
	}
	JOINT Bag
	{
		OFFSET -13.229000 4.813004 -0.593300
		CHANNELS 3 Xrotation Yrotation Zrotation
		End Site
		{
			OFFSET 0.000000 21.880577 0.000000
		}
	}
	JOINT OccupyGuyFacialAnim_Joint
	{
		OFFSET 1.000000 -70.206398 -1.655000
		CHANNELS 3 Xrotation Yrotation Zrotation
		End Site
		{
			OFFSET 0.000000 21.880577 0.000000
		}
	}
}
MOTION
Frames: 4
Frame Time: 0.033333
0.101402 35.118996 1.048444 0.290800 3.367667 0.727137 0.000000 0.000000 0.000000 -6.149220 1.601147 13.495865 107.946898 10.510176 1.713217 23.311890 -1.412318 -10.581527 0.000001 0.000000 0.000002 -0.000000 -0.000000 -0.000001 -4.428705 -4.864201 -13.131286 107.975162 -3.778320 -0.539791 12.927607 -3.117998 -2.639225 -0.000002 -0.000000 -0.000000 0.000000 0.000000 -0.000000 1.238358 0.275073 0.013290 0.117546 0.080248 -0.076154 0.117466 0.058468 -0.071323 -0.391163 0.001168 0.119094 -1.124875 0.501905 0.198295 0.000000 -0.000000 -0.000000 0.000000 -0.000000 -0.000000 0.000000 -0.000000 -0.000000 0.000000 -0.000000 -0.000000 -0.000000 -0.000000 -0.000000 0.000000 -0.000000 -0.000000 -0.000000 -0.000000 -0.000000 0.000000 -0.000000 -0.000000 0.000000 -0.000000 -0.000000 0.590660 -3.289778 -22.051201 11.487646 -16.437972 -52.995076 -0.000007 -20.287574 -0.000007 -6.791059 11.876486 -5.288654 -8.132627 -14.733244 10.498871 11.519357 33.944756 -1.835109 -0.000001 -0.000000 0.000000 -0.454504 -5.324287 -4.188011 0.332394 1.947017 -19.374112 0.000000 0.000002 0.000002 -0.402219 -0.924985 -7.467144 1.036596 3.328949 -34.583693 0.000001 -0.000000 0.000002 -0.154984 2.799747 -20.132690 0.105340 1.107145 -10.870266 0.000001 0.000000 -0.000001 -7.751400 8.976280 -14.644255 0.588629 2.561291 -25.881757 0.000000 -0.000001 0.000003 0.000004 -0.000001 0.000000 -0.115936 9.902329 22.046865 7.752877 7.030035 56.245624 -0.000003 19.951471 0.000002 -2.705265 -6.091825 1.899134 -17.664433 6.244421 -1.510161 -4.154326 -35.434536 -9.902116 -0.000001 0.000000 -0.000000 13.508010 5.013849 9.926882 0.129472 -1.091611 13.527197 -0.000003 0.000002 0.000000 -0.129092 -1.121128 7.049729 0.786474 -2.591742 33.756151 0.000002 0.000000 -0.000001 0.541365 -5.199167 11.272790 0.534406 -2.167998 27.691747 -0.000001 0.000001 0.000001 -12.485677 -16.712339 10.991434 0.316060 -1.688029 21.208518 -0.000000 0.000001 -0.000001 -0.000003 0.000002 -0.000001 -0.000000 -0.000000 0.000000 -0.000000 0.000000 0.000000 -0.000000 -0.000000 0.000000 -0.000000 -0.000000 0.000000 -0.000000 -0.000000 0.000000 -0.000000 0.000000 0.000000 -0.000000 -0.000000 0.000000 -0.000000 -0.000000 0.000000 -0.000000 -0.000000 0.000000 -0.000000 0.000000 0.000000 0.000000 0.000000 0.000000 0.000000 0.000000 0.000000 0.000000 0.000000 0.000000 
0.096021 35.113113 1.057637 0.423505 3.358282 0.589832 -0.000000 -0.000000 -0.000000 -6.251614 1.520112 13.654691 107.975237 10.453540 1.647374 23.279979 -1.415360 -10.588434 0.000000 0.000002 -0.000000 0.000001 -0.000000 0.000000 -4.555945 -4.895551 -12.974806 107.953756 -3.814536 -0.558144 12.946840 -3.118897 -2.642343 -0.000001 -0.000001 -0.000000 0.000000 0.000000 0.000000 1.242899 0.244048 0.029652 0.117546 0.080250 -0.076153 0.117467 0.058467 -0.071323 -0.333294 0.059212 0.107488 -0.735718 1.171073 -0.161632 -0.000000 -0.000000 0.000000 -0.000000 -0.000000 0.000000 -0.000000 -0.000000 0.000000 -0.000000 -0.000000 -0.000000 -0.000000 -0.000000 -0.000000 -0.000000 -0.000000 -0.000000 -0.000000 -0.000000 -0.000000 -0.000000 -0.000000 0.000000 -0.000000 -0.000000 0.000000 0.591836 -3.289566 -22.030695 11.816908 -16.171958 -52.914435 -0.000003 -21.026379 -0.000009 -6.771854 12.107669 -5.239018 -8.132617 -14.733244 10.498918 11.477181 33.878852 -1.811712 0.000001 0.000001 0.000001 -0.447839 -5.340259 -4.134010 0.332060 1.946086 -19.364319 -0.000000 0.000001 0.000004 -0.403399 -0.945409 -7.448298 1.036599 3.328955 -34.583669 0.000002 0.000000 -0.000003 -0.155251 2.796043 -20.097789 0.104841 1.104514 -10.844148 -0.000001 -0.000000 -0.000001 -7.756873 8.964774 -14.596362 0.591030 2.566231 -25.935429 0.000001 0.000001 -0.000000 0.000002 0.000001 -0.000000 -0.128245 9.947006 22.049888 7.543163 7.123787 56.273256 0.000003 19.457182 0.000002 -1.866032 -5.610576 2.219402 -17.664430 6.244436 -1.510168 -4.118044 -34.821059 -9.768466 -0.000000 -0.000001 0.000002 13.486290 5.060018 9.604273 0.138535 -1.128606 13.994958 0.000001 -0.000000 0.000000 -0.132998 -1.137574 7.243938 0.795593 -2.605323 33.957426 -0.000000 0.000001 0.000001 0.558703 -5.223689 11.611455 0.545097 -2.188221 27.972729 -0.000000 0.000000 -0.000003 -12.485677 -16.712337 10.991441 0.348936 -1.770385 22.297950 -0.000000 0.000001 0.000002 0.000000 0.000001 -0.000001 -0.000000 0.000000 0.000000 -0.000000 0.000000 0.000000 -0.000000 0.000000 0.000000 -0.000000 0.000000 0.000000 -0.000000 0.000000 0.000000 -0.000000 0.000000 0.000000 -0.000000 0.000000 0.000000 -0.000000 0.000000 0.000000 -0.000000 0.000000 0.000000 -0.000000 0.000000 0.000000 -0.000000 -0.000000 -0.000000 -0.000000 -0.000000 -0.000000 -0.000000 -0.000000 -0.000000 
0.091725 35.102654 1.067005 0.572863 3.337410 0.428106 -0.000000 -0.000000 -0.000000 -6.360619 1.427351 13.840868 108.017031 10.375115 1.562507 23.234900 -1.407799 -10.609226 -0.000001 -0.000001 0.000000 -0.000001 -0.000000 0.000001 -4.703570 -4.931255 -12.795307 107.936742 -3.854768 -0.589639 12.963947 -3.119763 -2.645741 0.000002 -0.000001 -0.000000 -0.000000 0.000000 -0.000001 1.258115 0.222460 0.059480 0.117547 0.080249 -0.076153 0.117466 0.058466 -0.071323 -0.264114 0.155597 0.086308 -0.085117 2.257823 -0.634710 -0.000000 0.000000 -0.000000 -0.000000 0.000000 -0.000000 -0.000000 0.000000 0.000000 -0.000000 0.000000 0.000000 -0.000000 0.000000 -0.000000 -0.000000 0.000000 0.000000 -0.000000 0.000000 -0.000000 -0.000000 0.000000 -0.000000 -0.000000 0.000000 -0.000000 0.594684 -3.287655 -21.991686 12.231912 -15.902355 -52.811716 0.000007 -21.948927 0.000012 -6.776676 12.494017 -5.045826 -8.132620 -14.733251 10.498902 11.424509 33.803894 -1.770308 -0.000000 -0.000001 -0.000001 -0.441384 -5.363758 -4.078609 0.332372 1.946980 -19.373673 0.000001 0.000001 0.000000 -0.404139 -0.960917 -7.431952 1.036596 3.328957 -34.583642 -0.000001 0.000001 -0.000001 -0.156649 2.788225 -20.051477 0.104724 1.103932 -10.838336 -0.000002 0.000001 -0.000002 -7.762921 8.949693 -14.555666 0.586958 2.557850 -25.844338 0.000000 -0.000001 0.000001 0.000001 0.000001 0.000000 -0.135163 10.002753 22.063673 7.249145 7.288082 56.270599 -0.000004 18.761771 0.000014 -1.030885 -5.061405 2.443679 -17.664426 6.244423 -1.510174 -4.081250 -34.147189 -9.623760 -0.000001 -0.000001 -0.000000 13.461756 5.112771 9.242538 0.144791 -1.153448 14.309500 -0.000000 -0.000000 0.000002 -0.137011 -1.154673 7.445736 0.791356 -2.599043 33.864112 0.000001 -0.000001 0.000006 0.577497 -5.249954 11.975727 0.546583 -2.191025 28.011813 -0.000003 0.000001 -0.000003 -12.485678 -16.712349 10.991433 0.378849 -1.841610 23.247295 -0.000001 0.000000 -0.000001 0.000001 -0.000001 0.000000 -0.000000 -0.000001 -0.000000 0.000000 -0.000000 -0.000000 -0.000000 -0.000001 0.000000 -0.000000 -0.000001 0.000000 -0.000000 -0.000001 -0.000000 0.000000 -0.000000 -0.000000 -0.000000 -0.000001 0.000000 -0.000000 -0.000001 0.000000 -0.000000 -0.000001 -0.000000 0.000000 -0.000000 -0.000000 -0.000000 -0.000000 -0.000000 -0.000000 -0.000000 -0.000000 -0.000000 -0.000000 -0.000000 
0.090758 35.088058 1.073632 0.741516 3.326311 0.248392 -0.000000 -0.000000 0.000000 -6.495776 1.324027 14.040578 108.075982 10.297845 1.480237 23.178518 -1.399360 -10.632998 -0.000002 0.000000 0.000001 -0.000000 0.000001 -0.000000 -4.870623 -4.966556 -12.604799 107.926428 -3.883609 -0.611713 12.979142 -3.120495 -2.648343 0.000000 -0.000001 0.000001 -0.000000 0.000000 0.000001 1.260380 0.192518 0.096719 0.117548 0.080250 -0.071599 0.117467 0.058468 -0.071323 -0.167222 0.313246 0.052928 0.985440 3.996187 -1.271409 0.000000 0.000000 -0.000000 0.000000 0.000000 -0.000000 0.000000 0.000000 0.000000 0.000000 0.000000 -0.000000 0.000000 0.000000 -0.000000 0.000000 0.000000 -0.000000 0.000000 0.000000 -0.000000 0.000000 0.000000 -0.000000 0.000000 0.000000 -0.000000 0.599305 -3.285116 -21.923944 12.736641 -15.560441 -52.704786 -0.000001 -23.102961 -0.000005 -6.764216 12.972470 -4.837734 -8.132622 -14.733249 10.498900 11.360509 33.713161 -1.718999 0.000001 0.000002 0.000002 -0.432653 -5.398485 -4.003037 0.330852 1.942648 -19.328819 -0.000002 0.000001 -0.000000 -0.404368 -0.988790 -7.387640 1.036594 3.328951 -34.583666 0.000001 0.000000 -0.000005 -0.164137 2.761691 -19.983872 0.103229 1.096071 -10.760229 -0.000000 0.000001 -0.000002 -7.774225 8.916961 -14.503181 0.583977 2.551683 -25.777395 -0.000001 0.000000 0.000001 0.000001 0.000002 -0.000001 -0.144925 10.072596 22.089557 6.934676 7.471625 56.229799 -0.000004 18.024640 0.000006 -0.202818 -4.447369 2.673912 -17.664423 6.244414 -1.510189 -4.044972 -33.421700 -9.469960 -0.000000 -0.000001 0.000003 13.434977 5.171389 8.846950 0.149011 -1.169834 14.517446 -0.000007 0.000001 -0.000001 -0.141072 -1.172317 7.653789 0.777545 -2.578347 33.558219 0.000000 0.000001 0.000001 0.597651 -5.277712 12.362491 0.541310 -2.181097 27.873715 0.000003 -0.000001 -0.000000 -12.485679 -16.712348 10.991458 0.406825 -1.905373 24.102827 0.000001 0.000000 0.000001 0.000001 -0.000001 -0.000000 0.000000 -0.000000 -0.000000 0.000000 -0.000000 -0.000000 0.000000 -0.000000 -0.000000 0.000000 -0.000000 -0.000000 0.000000 -0.000000 -0.000000 0.000000 -0.000000 -0.000000 0.000000 -0.000000 -0.000000 0.000000 -0.000000 -0.000000 0.000000 -0.000000 -0.000000 0.000000 -0.000000 -0.000000 -0.000000 -0.000000 0.000000 -0.000000 -0.000000 0.000000 -0.000000 -0.000000 0.000000 
